<?xml version="1.0" standalone="no"?>
<!DOCTYPE svg PUBLIC "-//W3C//DTD SVG 20010904//EN"
 "http://www.w3.org/TR/2001/REC-SVG-20010904/DTD/svg10.dtd">
<svg version="1.0" xmlns="http://www.w3.org/2000/svg"
 width="1280.000000pt" height="736.000000pt" viewBox="0 0 1280.000000 736.000000"
 preserveAspectRatio="xMidYMid meet">
<metadata>
Created by potrace 1.15, written by Peter Selinger 2001-2017
</metadata>
<g transform="translate(0.000000,736.000000) scale(0.100000,-0.100000)"
fill="white" stroke="white">
<path d="M4245 7350 c-169 -15 -402 -86 -695 -212 -309 -132 -552 -306 -703
-502 -242 -313 -466 -818 -692 -1561 -35 -115 -79 -269 -98 -341 l-35 -131
102 -7 c188 -12 1513 -25 3334 -32 l1812 -7 0 44 c0 64 -28 432 -40 519 -5 41
-20 124 -31 183 -12 59 -20 109 -18 111 2 2 441 -10 974 -25 534 -15 1452 -42
2040 -59 589 -16 1162 -33 1275 -37 l205 -6 163 -158 164 -157 121 43 c67 24
247 88 399 142 l278 98 0 591 0 591 -372 153 c-323 132 -375 151 -392 140 -11
-7 -108 -83 -216 -170 l-195 -157 -2355 -67 c-1295 -37 -2385 -67 -2421 -66
l-66 0 -79 102 c-319 409 -812 742 -1358 917 -173 55 -245 63 -641 66 -198 2
-405 -1 -460 -5z"/>
<path d="M1455 4388 c-61 -52 -132 -119 -159 -149 -119 -132 -243 -327 -381
-599 -88 -175 -248 -530 -242 -536 2 -2 2075 -3 4606 -2 l4602 3 -91 63 c-101
70 -249 187 -511 404 -300 248 -472 370 -714 509 -145 83 -396 203 -570 272
l-140 56 -1165 10 c-2211 21 -4496 48 -4875 57 l-250 6 -110 -94z"/>
<path d="M825 2975 c-466 -69 -721 -321 -806 -795 -11 -56 -14 -190 -14 -525
0 -517 1 -527 96 -720 226 -463 872 -863 1494 -925 79 -8 1157 -10 3780 -8
l3670 4 120 27 c568 128 983 299 1315 542 440 320 686 716 756 1215 20 142 14
436 -11 580 -25 139 -61 208 -159 305 -127 125 -294 202 -563 259 -281 59 11
56 -5000 55 -3767 -1 -4604 -4 -4678 -14z m295 -328 c-54 -28 -80 -75 -80
-142 l0 -51 -55 -17 c-30 -9 -84 -31 -120 -49 l-66 -31 -38 37 c-82 80 -199
60 -236 -39 -23 -58 -10 -108 40 -164 l35 -38 -35 -68 c-19 -38 -40 -90 -46
-117 l-13 -48 -51 0 c-39 0 -62 -6 -89 -25 -20 -14 -38 -25 -40 -25 -5 0 5
178 15 250 52 381 268 542 733 549 l89 1 -43 -23z m9045 8 c388 -37 651 -134
720 -266 40 -76 52 -439 21 -614 -106 -589 -556 -1027 -1331 -1295 -149 -51
-392 -113 -548 -140 -118 -20 -156 -20 -3680 -20 -2219 0 -3606 4 -3679 10
-409 34 -836 233 -1109 516 -113 118 -182 231 -215 351 -16 60 -34 483 -20
483 4 0 19 -9 34 -20 16 -12 51 -22 89 -26 59 -6 62 -8 69 -38 3 -17 24 -69
45 -115 l39 -84 -39 -42 c-64 -70 -65 -149 -1 -210 21 -20 42 -29 78 -33 56
-5 91 10 136 57 l29 30 44 -26 c24 -14 76 -36 116 -48 l72 -23 5 -59 c9 -102
66 -157 153 -150 40 3 56 11 85 40 32 32 36 43 41 104 l6 67 41 8 c22 5 75 26
117 47 l76 38 28 -29 c38 -40 75 -58 120 -58 78 0 143 63 143 138 0 41 -13 67
-56 113 l-34 35 33 65 c19 36 40 88 47 117 13 50 15 52 49 52 55 0 101 17 134
47 l29 28 -6 -45 c-15 -124 -15 -154 -6 -251 16 -156 47 -263 114 -399 130
-264 376 -476 652 -563 514 -162 1042 39 1321 505 141 236 185 565 112 845
-113 431 -473 754 -921 824 -108 16 -320 6 -428 -21 -292 -73 -539 -255 -697
-515 -48 -80 -113 -229 -113 -261 0 -24 -14 -16 -28 16 -22 48 -67 74 -138 78
l-63 4 -6 37 c-3 21 -24 73 -45 117 l-38 79 38 41 c83 91 55 212 -56 243 -49
14 -101 -2 -145 -45 l-38 -37 -73 36 c-40 20 -94 41 -120 48 l-48 11 0 57 c0
69 -24 112 -77 140 l-38 20 4401 1 c3860 0 4420 -2 4559 -15z"/>
<path d="M5407 2599 c-450 -44 -823 -350 -961 -788 -37 -117 -49 -226 -43
-380 10 -258 95 -475 264 -676 129 -153 346 -293 546 -349 285 -82 628 -38
871 110 299 183 491 467 541 801 53 349 -54 685 -300 941 -238 250 -575 375
-918 341z"/>
<path d="M7765 2599 c-376 -36 -719 -276 -893 -624 -244 -491 -76 -1115 383
-1421 500 -332 1163 -219 1524 261 73 97 156 269 187 390 35 135 43 330 20
464 -78 444 -403 794 -841 905 -50 13 -268 39 -285 35 -3 -1 -45 -6 -95 -10z"/>
<path d="M10134 2596 c-47 -21 -74 -61 -74 -112 0 -39 -3 -44 -27 -50 -16 -4
-56 -20 -91 -36 l-63 -29 -35 30 c-28 25 -43 31 -82 31 -40 0 -53 -5 -74 -27
-48 -51 -45 -108 8 -164 l26 -27 -25 -49 c-14 -26 -30 -67 -36 -89 -11 -41
-12 -42 -62 -46 -88 -9 -138 -80 -105 -150 20 -43 63 -68 113 -68 38 0 40 -2
53 -42 7 -24 23 -65 37 -91 l24 -48 -30 -34 c-38 -44 -46 -83 -27 -129 11 -26
26 -41 52 -52 46 -19 85 -11 129 27 l34 30 48 -24 c26 -14 67 -30 91 -37 41
-13 42 -15 42 -54 0 -89 79 -146 152 -112 43 20 68 63 68 113 0 38 2 40 43 53
23 7 64 23 90 37 l48 24 34 -30 c44 -38 85 -47 128 -26 69 32 81 117 27 179
l-31 35 24 48 c14 26 30 67 37 91 13 41 15 42 54 42 83 0 141 75 112 144 -20
48 -50 68 -106 74 -44 4 -51 8 -56 31 -4 14 -20 55 -36 89 l-30 64 25 26 c38
40 50 78 37 118 -26 78 -120 100 -184 43 l-35 -30 -63 29 c-35 16 -75 32 -90
36 -24 6 -28 11 -28 44 0 86 -76 148 -146 118z"/>
</g>
</svg>
